HIERARCHY
ROOT Hips
{
	OFFSET 0.000000 0.000000 0.000000
	CHANNELS 6 Xposition Yposition Zposition Xrotation Yrotation Zrotation
	JOINT LeftUpLeg_virtual
	{
		OFFSET 0.000000 0.000000 0.000000
		CHANNELS 3 Xrotation Yrotation Zrotation
		JOINT LeftUpLeg
		{
			OFFSET 10.205400 -3.823500 0.155100
			CHANNELS 3 Xrotation Yrotation Zrotation
			JOINT LeftLeg
			{
				OFFSET 0.708757 -12.982077 0.567790
				CHANNELS 3 Xrotation Yrotation Zrotation
				JOINT LeftFoot
				{
					OFFSET -0.708756 -10.717838 -2.184338
					CHANNELS 3 Xrotation Yrotation Zrotation
					JOINT LeftToeBase
					{
						OFFSET 0.108149 -7.191104 7.560241
						CHANNELS 3 Xrotation Yrotation Zrotation
						JOINT LeftToe_End
						{
							OFFSET 0.070230 0.081724 4.490308
							CHANNELS 3 Xrotation Yrotation Zrotation
							End Site
							{
								OFFSET 0 0 0
							}
						}
					}
				}
			}
		}
	}
	JOINT RightUpLeg_virtual
	{
		OFFSET 0.000000 0.000000 0.000000
		CHANNELS 3 Xrotation Yrotation Zrotation
		JOINT RightUpLeg
		{
			OFFSET -10.205400 -3.823500 0.005500
			CHANNELS 3 Xrotation Yrotation Zrotation
			JOINT RightLeg
			{
				OFFSET -0.708756 -12.982134 0.610632
				CHANNELS 3 Xrotation Yrotation Zrotation
				JOINT RightFoot
				{
					OFFSET 0.708754 -10.717769 -1.945823
					CHANNELS 3 Xrotation Yrotation Zrotation
					JOINT RightToeBase
					{
						OFFSET -0.108140 -7.191069 7.372968
						CHANNELS 3 Xrotation Yrotation Zrotation
						JOINT RightToe_End
						{
							OFFSET -0.070227 0.081735 4.479403
							CHANNELS 3 Xrotation Yrotation Zrotation
							End Site
							{
								OFFSET 0 0 0
							}
						}
					}
				}
			}
		}
	}
	JOINT Spine_virtual
	{
		OFFSET 0.000000 0.000000 0.000000
		CHANNELS 3 Xrotation Yrotation Zrotation
		JOINT Spine
		{
			OFFSET 0.000000 6.876099 0.125700
			CHANNELS 3 Xrotation Yrotation Zrotation
			JOINT Spine1
			{
				OFFSET 0.000000 5.730043 0.104720
				CHANNELS 3 Xrotation Yrotation Zrotation
				JOINT Spine1_split
				{
					OFFSET 0.000000 5.730043 0.104720
					CHANNELS 3 Xrotation Yrotation Zrotation
					JOINT Spine2
					{
						OFFSET 0.000000 5.730043 0.104720
						CHANNELS 3 Xrotation Yrotation Zrotation
						JOINT Neck_virtual
						{
							OFFSET 0.000000 0.000000 0.000000
							CHANNELS 3 Xrotation Yrotation Zrotation
							JOINT Neck
							{
								OFFSET 0.000000 10.314075 0.188496
								CHANNELS 3 Xrotation Yrotation Zrotation
								JOINT Head
								{
									OFFSET 0.000000 7.643700 -2.377400
									CHANNELS 3 Xrotation Yrotation Zrotation
									JOINT HeadTop_End
									{
										OFFSET 0.000000 43.788605 -13.619600
										CHANNELS 3 Xrotation Yrotation Zrotation
										End Site
										{
											OFFSET 0 0 0
										}
									}
								}
							}
						}
						JOINT LeftShoulder_virtual
						{
							OFFSET 0.000000 0.000000 0.000000
							CHANNELS 3 Xrotation Yrotation Zrotation
							JOINT LeftShoulder
							{
								OFFSET 2.196100 4.412489 0.087492
								CHANNELS 3 Xrotation Yrotation Zrotation
								JOINT LeftShoulder_split
								{
									OFFSET 2.196100 4.412489 0.087492
									CHANNELS 3 Xrotation Yrotation Zrotation
									JOINT LeftArm
									{
										OFFSET 8.771219 -2.981674 -0.026999
										CHANNELS 3 Xrotation Yrotation Zrotation
										JOINT LeftForeArm
										{
											OFFSET 8.512804 0.000000 -0.000000
											CHANNELS 3 Xrotation Yrotation Zrotation
											JOINT LeftHand
											{
												OFFSET 18.484802 0.000000 -0.000000
												CHANNELS 3 Xrotation Yrotation Zrotation
												End Site
												{
													OFFSET 0 0 0
												}
											}
										}
									}
								}
							}
						}
						JOINT RightShoulder_virtual
						{
							OFFSET 0.000000 0.000000 0.000000
							CHANNELS 3 Xrotation Yrotation Zrotation
							JOINT RightShoulder
							{
								OFFSET -2.196100 4.412496 0.070690
								CHANNELS 3 Xrotation Yrotation Zrotation
								JOINT RightShoulder_split
								{
									OFFSET -2.196100 4.412496 0.070690
									CHANNELS 3 Xrotation Yrotation Zrotation
									JOINT RightArm
									{
										OFFSET -8.771282 -2.981682 -0.094208
										CHANNELS 3 Xrotation Yrotation Zrotation
										JOINT RightForeArm
										{
											OFFSET -8.494598 0.000000 0.000000
											CHANNELS 3 Xrotation Yrotation Zrotation
											JOINT RightHand
											{
												OFFSET -18.483803 0.000000 0.000001
												CHANNELS 3 Xrotation Yrotation Zrotation
												End Site
												{
													OFFSET 0 0 0
												}
											}
										}
									}
								}
							}
						}
					}
				}
			}
		}
	}
}
MOTION
Frames: 4
Frame Time: 0.03333333
-0.025147 52.812027 -0.946594 0.000000 0.000000 0.000000 -1.013294 1.590341 0.859952 -25.901365 9.416887 1.898457 46.626519 14.711171 1.446611 31.097373 1.426705 6.523380 -0.000002 0.000002 0.000000 0.000000 0.000000 0.000000 -1.013294 1.590341 0.859952 -0.513958 -7.885818 -2.604612 23.592976 -18.665167 1.661825 40.424939 0.494900 3.052704 0.000005 -0.000000 -0.000007 0.000000 0.000000 0.000000 -1.013294 1.590341 0.859952 -2.804148 -0.022958 -0.539900 -5.611657 -0.102273 -0.620860 0.000000 0.000000 0.000000 0.000000 0.000000 0.000000 -5.611654 -0.102273 -0.620860 -27.780270 0.884575 -2.478857 -5.939967 -1.809258 2.604353 0.000000 0.000000 0.000000 -5.611654 -0.102273 -0.620860 7.248326 6.365629 32.385171 0.000000 0.000000 0.000000 -52.895328 -36.819911 5.857831 -23.466836 -23.506883 1.478715 0.000000 0.000000 0.000000 -5.611654 -0.102273 -0.620860 2.277538 -6.651280 -36.122586 0.000000 0.000000 0.000000 -64.303854 35.763871 7.685043 -24.527665 16.757150 0.686880 0.000000 0.000000 0.000000 
0.130123 53.016926 -1.582859 0.000000 0.000000 0.000000 -0.600344 0.940861 0.778644 -30.654401 9.131739 0.966764 49.646941 5.831662 1.105241 31.986787 1.680554 1.321423 -0.133653 -0.247613 0.149180 0.000000 0.000000 0.000000 -0.600344 0.940861 0.778644 -2.111793 -8.010857 -4.887218 38.392066 -13.098209 4.321544 26.835760 0.512661 10.209121 0.675259 2.489655 1.117346 0.000000 0.000000 0.000000 -0.600344 0.940861 0.778644 -2.637383 0.299321 -0.355001 -5.279451 0.526126 -0.270102 0.000000 0.000000 0.000000 0.000000 0.000000 0.000000 -5.279453 0.526127 -0.270102 -29.410515 0.905853 -3.426295 -5.302067 -1.820671 3.677569 0.000000 0.000000 0.000000 -5.279453 0.526127 -0.270102 7.870912 7.117309 32.582284 0.000000 0.000000 0.000000 -57.915892 -34.418478 -0.704291 -26.183242 -29.980101 4.243787 0.000000 0.000000 0.000000 -5.279453 0.526127 -0.270102 2.490090 -6.094536 -35.392777 0.000000 0.000000 0.000000 -63.972426 33.630711 7.079534 -24.776930 22.588505 -0.847461 0.000000 0.000000 0.000000 
0.290881 53.233158 -2.659262 0.000000 0.000000 0.000000 0.191902 -1.222016 0.612826 -37.289592 9.041548 -0.797009 54.257356 -5.127830 0.514272 31.140328 3.052748 -2.200290 -0.310171 -0.649674 0.109726 0.000000 0.000000 0.000000 0.191902 -1.222016 0.612826 -1.277778 -8.258263 -7.001007 47.872338 -1.384195 6.138734 12.456844 -0.475134 19.842695 0.956117 1.256672 1.263052 0.000000 0.000000 0.000000 0.191902 -1.222016 0.612826 -2.449024 0.908694 -0.136466 -4.910725 1.697763 0.223636 0.000000 0.000000 0.000000 0.000000 0.000000 0.000000 -4.910728 1.697762 0.223636 -29.004316 0.063109 -3.103742 -6.983468 -1.148913 4.443619 0.000000 0.000000 0.000000 -4.910728 1.697762 0.223636 9.233547 8.752134 32.902312 0.000000 0.000000 0.000000 -68.084753 -34.014154 -11.684621 -28.691903 -35.708478 10.607564 0.000000 0.000000 0.000000 -4.910728 1.697762 0.223636 2.685328 -5.556062 -34.635343 0.000000 0.000000 0.000000 -64.359616 32.111567 6.818253 -24.909990 27.211863 -2.862125 0.000000 0.000000 0.000000 
0.474391 53.462364 -4.213345 0.000000 0.000000 0.000000 1.370125 -5.927763 0.426919 -43.827067 9.100809 -2.887395 58.836267 -14.908647 -0.413363 27.050532 5.380490 -4.549144 -0.684161 -0.902888 0.033166 0.000000 0.000000 0.000000 1.370125 -5.927763 0.426919 2.152807 -8.579872 -8.640857 48.299601 7.179502 6.537539 5.711248 -1.750172 24.977915 -0.581439 0.057224 0.189466 0.000000 0.000000 0.000000 1.370125 -5.927763 0.426919 -2.246284 1.853233 0.064240 -4.534728 3.469904 0.884206 0.000000 0.000000 0.000000 0.000000 0.000000 0.000000 -4.534732 3.469906 0.884207 -27.111889 -1.184090 -2.102647 -9.713168 0.061401 5.251794 0.000000 0.000000 0.000000 -4.534732 3.469906 0.884207 11.294375 11.203110 33.051678 0.000000 0.000000 0.000000 -80.408771 -34.056122 -23.606491 -29.576153 -39.839360 20.033899 0.000000 0.000000 0.000000 -4.534732 3.469906 0.884207 2.906450 -4.949833 -33.790831 0.000000 0.000000 0.000000 -65.165428 31.264064 6.922798 -25.133918 30.858002 -4.805791 0.000000 0.000000 0.000000 
